<svg width="136" height="30" viewBox="0 0 136 30" fill="none" xmlns="http://www.w3.org/2000/svg">
<path d="M16.684 4.228V9.16H6.388V14.488H14.092V19.276H6.388V29.5H0.232V4.228H16.684ZM23.0155 7.324C21.9355 7.324 21.0475 7.012 20.3515 6.388C19.6795 5.74 19.3435 4.948 19.3435 4.012C19.3435 3.052 19.6795 2.26 20.3515 1.636C21.0475 0.987998 21.9355 0.663998 23.0155 0.663998C24.0715 0.663998 24.9355 0.987998 25.6075 1.636C26.3035 2.26 26.6515 3.052 26.6515 4.012C26.6515 4.948 26.3035 5.74 25.6075 6.388C24.9355 7.012 24.0715 7.324 23.0155 7.324ZM26.0755 9.412V29.5H19.9195V9.412H26.0755ZM42.7767 9.196C45.1287 9.196 47.0007 9.964 48.3927 11.5C49.8087 13.012 50.5167 15.1 50.5167 17.764V29.5H44.3967V18.592C44.3967 17.248 44.0487 16.204 43.3527 15.46C42.6567 14.716 41.7207 14.344 40.5447 14.344C39.3687 14.344 38.4327 14.716 37.7367 15.46C37.0407 16.204 36.6927 17.248 36.6927 18.592V29.5H30.5367V9.412H36.6927V12.076C37.3167 11.188 38.1567 10.492 39.2127 9.988C40.2687 9.46 41.4567 9.196 42.7767 9.196ZM65.9905 24.28V29.5H62.8585C60.6265 29.5 58.8865 28.96 57.6385 27.88C56.3905 26.776 55.7665 24.988 55.7665 22.516V14.524H53.3185V9.412H55.7665V4.516H61.9225V9.412H65.9545V14.524H61.9225V22.588C61.9225 23.188 62.0665 23.62 62.3545 23.884C62.6425 24.148 63.1225 24.28 63.7945 24.28H65.9905ZM127.539 29.5L121.419 21.076V29.5H115.263V2.86H121.419V17.584L127.503 9.412H135.099L126.747 19.492L135.171 29.5H127.539Z" fill="#004852"/>
<path d="M78.5635 29.788C76.5955 29.788 74.8195 29.368 73.2355 28.528C71.6755 27.688 70.4395 26.488 69.5275 24.928C68.6395 23.368 68.1955 21.544 68.1955 19.456C68.1955 17.392 68.6515 15.58 69.5635 14.02C70.4755 12.436 71.7235 11.224 73.3075 10.384C74.8915 9.544 76.6675 9.124 78.6355 9.124C80.6035 9.124 82.3795 9.544 83.9635 10.384C85.5475 11.224 86.7955 12.436 87.7075 14.02C88.6195 15.58 89.0755 17.392 89.0755 19.456C89.0755 21.52 88.6075 23.344 87.6715 24.928C86.7595 26.488 85.4995 27.688 83.8915 28.528C82.3075 29.368 80.5315 29.788 78.5635 29.788ZM78.5635 24.46C79.7395 24.46 80.7355 24.028 81.5515 23.164C82.3915 22.3 82.8115 21.064 82.8115 19.456C82.8115 17.848 82.4035 16.612 81.5875 15.748C80.7955 14.884 79.8115 14.452 78.6355 14.452C77.4355 14.452 76.4395 14.884 75.6475 15.748C74.8555 16.588 74.4595 17.824 74.4595 19.456C74.4595 21.064 74.8435 22.3 75.6115 23.164C76.4035 24.028 77.3875 24.46 78.5635 24.46ZM101.485 29.788C99.5174 29.788 97.7414 29.368 96.1574 28.528C94.5974 27.688 93.3614 26.488 92.4494 24.928C91.5614 23.368 91.1174 21.544 91.1174 19.456C91.1174 17.392 91.5734 15.58 92.4854 14.02C93.3974 12.436 94.6454 11.224 96.2294 10.384C97.8134 9.544 99.5894 9.124 101.557 9.124C103.525 9.124 105.301 9.544 106.885 10.384C108.469 11.224 109.717 12.436 110.629 14.02C111.541 15.58 111.997 17.392 111.997 19.456C111.997 21.52 111.529 23.344 110.593 24.928C109.681 26.488 108.421 27.688 106.813 28.528C105.229 29.368 103.453 29.788 101.485 29.788ZM101.485 24.46C102.661 24.46 103.657 24.028 104.473 23.164C105.313 22.3 105.733 21.064 105.733 19.456C105.733 17.848 105.325 16.612 104.509 15.748C103.717 14.884 102.733 14.452 101.557 14.452C100.357 14.452 99.3614 14.884 98.5694 15.748C97.7774 16.588 97.3814 17.824 97.3814 19.456C97.3814 21.064 97.7654 22.3 98.5334 23.164C99.3254 24.028 100.309 24.46 101.485 24.46Z" fill="#82B440"/>
</svg>
